<svg viewBox="0 0 76 98" fill="none" xmlns="http://www.w3.org/2000/svg"><path d="M37.676 97.3926L.8555 72.9759V1.1104h73.8381V72.975L37.676 97.3926z" fill="#2C39F2" stroke="#2C39F2"/><path d="M59.3196 56.1417c.7941 0 1.5881 0 2.3821-.4024v8.0481c-1.9851.6036-4.5657 1.2072-6.9478 1.2072-4.3672 0-7.7419-1.6096-9.5285-4.8288-4.3672 3.2192-9.3299 5.2312-15.8807 5.03-8.1389 0-15.2853-4.8288-15.0868-13.2793.1986-10.8649 10.5211-14.0842 19.2555-14.0842 3.3746 0 7.3448.6036 10.3225 1.2073v-1.6097c0-4.2252-3.3747-7.2432-10.3225-7.2432-5.9553 0-11.3151 1.4084-15.4838 3.018V22.541c3.5732-1.2072 10.3225-2.8168 16.8733-2.6156 13.1017.2012 21.4391 5.4324 21.2406 19.5166l-.1985 13.6817c.397 2.4144 1.7866 3.018 3.3746 3.018zm-33.9451-4.8288c0 3.4204 3.1761 5.8348 7.5433 5.8348 3.9702 0 7.5434-1.006 10.9181-3.6216v-7.2433c-2.1836-.6036-5.3598-1.2072-8.1389-1.2072-5.3598 0-10.3225 1.6096-10.3225 6.2373z" fill="#fff"/></svg>