<svg viewBox="0 0 314 100" fill="none" xmlns="http://www.w3.org/2000/svg"><path d="M19.0051 36.6188h-2.1836c-2.5806 0-4.7643-.4024-6.7494-1.2073-1.985-.8048-3.7716-2.012-5.1612-3.2192-1.3896-1.2072-2.3821-3.018-3.1762-5.03-.794-2.0121-.9925-4.0241-.9925-6.2373 0-2.2132.397-4.4264 1.191-6.2373.7941-1.8108 1.7866-3.6216 3.1762-5.03 1.3896-1.4084 3.1762-2.4144 5.1613-3.2192 1.9851-.8049 4.3672-1.2073 6.7493-1.2073h2.1836V0h3.3747v5.03h2.1835c2.5807 0 4.7643.4024 6.7494 1.2073 1.9851.8048 3.7717 2.012 5.1612 3.2192 1.3896 1.2072 2.3821 3.018 3.1762 5.03.794 2.0121 1.1911 4.0241 1.1911 6.2373 0 2.2132-.3971 4.4264-1.1911 6.2373-.7941 1.8108-1.7866 3.6216-3.1762 5.03-1.3895 1.4084-2.9776 2.4144-5.1612 3.2192-1.9851.8048-4.3672 1.2073-6.7494 1.2073h-2.1835v5.03h-3.3747v-4.8288h-.1985zm0-2.8169V7.6457h-2.1836c-1.9851 0-3.7717.4024-5.3598 1.006-1.588.6036-2.7791 1.4084-3.9702 2.4144-1.191 1.006-1.985 2.2132-2.5806 3.6216-.5955 1.4085-.794 2.8169-.794 4.2253v3.4204c0 1.4084.1985 2.8168.794 4.2253.5955 1.4084 1.3896 2.6156 2.5806 3.6216 1.191 1.006 2.3821 1.8108 3.9702 2.4144 1.5881.6036 3.3747 1.006 5.3598 1.006h2.1836v.2012zm5.5583 0c1.9851 0 3.5731-.4024 5.1612-1.006 1.5881-.6036 2.9776-1.4084 3.9702-2.4144.9925-1.006 1.9851-2.2132 2.5806-3.6216.5956-1.4085.7941-2.8169.7941-4.2253v-3.4204c0-1.4084-.1985-2.8168-.7941-4.2253-.5955-1.4084-1.3896-2.6156-2.5806-3.6216-1.1911-1.006-2.3821-1.8108-3.9702-2.4144-1.5881-.6036-3.3746-1.006-5.1612-1.006h-2.1836V34.003h2.1836v-.2012zM51.957 40.04V1.4092h15.2853c3.3747 0 5.9553 1.006 7.7419 2.8168 1.7866 2.012 2.5806 4.6277 2.5806 7.8469 0 3.4204-.794 6.036-2.5806 7.8469-1.7866 2.012-4.3672 2.8168-7.7419 2.8168H55.3317v16.9009H51.957v.4025zm3.3747-19.919h11.9106c2.1836 0 3.9701-.6036 5.1612-1.8109 1.1911-1.2072 1.7866-2.8168 1.7866-4.6276v-2.8168c0-1.8109-.5955-3.4205-1.7866-4.6277-1.1911-1.2072-2.7791-1.8108-5.1612-1.8108H55.3317V20.121zM101.982 40.6446c-4.9624 0-8.7341-1.6096-11.7118-5.03-2.7791-3.4205-4.1686-8.2493-4.1686-14.889 0-6.6396 1.3895-11.4685 4.1686-14.889 2.7792-3.4203 6.7494-5.03 11.7118-5.03 4.963 0 8.735 1.6097 11.514 5.03 2.779 3.4205 4.169 8.2494 4.169 14.889 0 6.4385-1.39 11.4685-4.169 14.889-2.779 3.4204-6.551 5.03-11.514 5.03zm0-2.8168c1.787 0 3.574-.4024 4.963-1.006 1.588-.6036 2.779-1.6096 3.772-2.8168.992-1.2073 1.985-2.8169 2.58-4.6277.596-1.8108.794-3.8228.794-6.2372v-4.8289c0-2.2132-.198-4.4264-.794-6.2373-.595-1.8108-1.389-3.4204-2.58-4.6276-.993-1.2072-2.382-2.2132-3.772-2.8168-1.389-.6036-3.176-1.006-4.963-1.006-1.786 0-3.5728.4024-4.9624 1.006-1.5881.6036-2.7791 1.6096-3.9702 2.8168-1.1911 1.2072-1.9851 2.8168-2.5807 4.6276-.5955 1.8109-.794 3.8229-.794 6.2373v4.8289c0 2.2132.1985 4.4264.794 6.2372.5956 1.8108 1.3896 3.4204 2.5807 4.6277.9925 1.2072 2.3821 2.2132 3.9702 2.8168 1.3896.6036 3.1764 1.006 4.9624 1.006zM153.998 21.9318h-21.24V40.04h-3.375V1.4092h3.375v17.5045h21.24V1.4092h3.375V40.04h-3.375V21.9318zM183.172 4.4272V40.04h-3.374V4.4272h-12.903v-3.018h29.18v3.018h-12.903zM205.398 40.04V1.4092h22.631v3.018h-19.256v14.4865h18.263v3.0181h-18.263v15.0901h19.256V40.04h-22.631zM264.564 21.9318h-21.24V40.04h-3.375V1.4092h3.375v17.5045h21.24V1.4092h3.375V40.04h-3.375V21.9318zM276.676 37.0219h3.97c1.787-2.4144 2.978-5.6336 3.97-9.6577.993-4.024 1.39-9.0541 1.39-15.0901V1.4091h21.836V37.022h5.161v11.2673h-3.176v-8.2493h-29.975v8.2493h-3.176V37.0219zm27.791 0V4.4272h-15.285v8.2493c0 6.036-.397 11.0661-1.191 15.0901-.794 4.0241-1.985 7.0421-3.375 9.2553v.2012h19.851v-.2012zM30.3173 99.3954l-4.1687-12.0721H9.6723L5.5036 99.3954H2.1289l13.6972-38.6308h4.1687l13.6971 38.6308h-3.3746zM17.8112 63.9839h-.1985l-7.1464 20.5226H25.156l-7.3448-20.5226zM44.2174 96.3774h5.3597l2.1836-5.4325-14.4912-30.1803h3.5732l9.7269 20.3214 2.5807 5.6337h.1985l2.1836-5.8349 8.1389-20.1202h3.3747L52.9518 95.975c-.5955 1.4084-1.1911 2.2132-1.9851 2.8168-.7941.4024-1.7866.6036-3.1762.6036h-3.5731v-3.018zM89.0747 63.7827v35.6127H85.7V63.7827H72.7969v-3.0181h29.1811v3.0181H89.0747zM123.618 100c-4.764 0-8.536-1.6095-11.117-5.0299-2.58-3.4205-3.97-8.2493-3.97-14.889 0-6.4384 1.39-11.4685 3.97-14.8889 2.581-3.4204 6.353-5.2313 11.117-5.2313 3.176 0 5.757.8048 7.94 2.2133 2.184 1.4084 3.772 3.4204 4.963 6.036l-2.779 1.6096c-.794-2.012-2.184-3.8228-3.772-5.03-1.786-1.2072-3.771-1.8108-6.153-1.8108-3.574 0-6.353 1.2072-8.536 3.8228-1.986 2.6156-2.978 6.2373-2.978 11.0661v4.6277c0 4.8288.992 8.4504 2.978 10.8649 1.985 2.4144 4.764 3.8228 8.536 3.8228 2.58 0 4.764-.6036 6.55-2.012 1.787-1.2072 2.978-3.018 3.971-5.2313l2.779 1.6096c-1.191 2.6157-2.78 4.8289-4.963 6.2373-2.779 1.4084-5.36 2.2131-8.536 2.2131zM160.537 100c-4.963 0-8.734-1.6095-11.712-5.03-2.779-3.4204-4.169-8.2492-4.169-14.8889 0-6.6397 1.39-11.4685 4.169-14.8889 2.779-3.4205 6.749-5.0301 11.712-5.0301s8.734 1.6096 11.514 5.0301c2.779 3.4204 4.168 8.2492 4.168 14.8889 0 6.4385-1.389 11.4685-4.168 14.8889-2.78 3.4205-6.551 5.03-11.514 5.03zm0-2.8167c1.787 0 3.573-.4024 4.963-1.006 1.588-.6036 2.779-1.6097 3.771-2.8169.993-1.2072 1.986-2.8168 2.581-4.6276.596-1.8108.794-3.8229.794-6.2373v-4.8288c0-2.2132-.198-4.4265-.794-6.2373-.595-1.8108-1.39-3.4204-2.581-4.6276-.992-1.2072-2.382-2.2132-3.771-2.8169-1.39-.6036-3.176-1.006-4.963-1.006s-3.573.4024-4.963 1.006c-1.588.6037-2.779 1.6097-3.97 2.8169-1.191 1.2072-1.985 2.8168-2.581 4.6276-.595 1.8108-.794 3.8229-.794 6.2373v4.8288c0 2.2132.199 4.4265.794 6.2373.596 1.8108 1.39 3.4204 2.581 4.6276.993 1.2072 2.382 2.2133 3.97 2.8169 1.39.6036 3.176 1.006 4.963 1.006zM188.133 99.3954V60.7646h15.285c3.375 0 5.955 1.0061 7.742 2.8169 1.787 2.012 2.581 4.6276 2.581 7.8468 0 3.4205-.794 6.0361-2.581 7.8469-1.787 2.012-4.367 2.8168-7.742 2.8168h-11.911v16.901h-3.374v.4024zm3.374-19.919h11.911c2.184 0 3.97-.6036 5.161-1.8108 1.191-1.2072 1.787-2.8168 1.787-4.6276v-2.6157c0-1.8108-.596-3.4204-1.787-4.6276-1.191-1.2072-2.779-1.8108-5.161-1.8108h-11.911v15.4925zM237.36 100c-4.764 0-8.536-1.6095-11.116-5.0299-2.581-3.4205-3.971-8.2493-3.971-14.889 0-6.4384 1.39-11.4685 3.971-14.8889 2.58-3.4204 6.352-5.2313 11.116-5.2313 3.176 0 5.757.8048 7.941 2.2133 2.183 1.4084 3.771 3.4204 4.962 6.036l-2.779 1.6096c-.794-2.012-2.183-3.8228-3.771-5.03-1.787-1.2072-3.772-1.8108-6.154-1.8108-3.573 0-6.353 1.2072-8.536 3.8228-1.985 2.6156-2.978 6.2373-2.978 11.0661v4.6277c0 4.8288.993 8.4504 2.978 10.8649 1.985 2.4144 4.764 3.8228 8.536 3.8228 2.58 0 4.764-.6036 6.55-2.012 1.787-1.2072 2.978-3.018 3.971-5.2313l2.779 1.6096c-1.191 2.6157-2.779 4.8289-4.963 6.2373-2.779 1.4084-5.558 2.2131-8.536 2.2131z" fill="#000"/></svg>