<svg viewBox="0 0 192 24" fill="none" xmlns="http://www.w3.org/2000/svg"><path d="M37.2571.3867L30.349 12.3141l-1.0481 2.2695.2382-2.0281L29.4914.3867h-5.2883v23.4684h4.8595l6.9558-12.1688.9529-2.1247-.1906 1.8833.0477 12.4102h5.2883L42.069.3867h-4.8119zM10.5766.3867H8.0039L0 23.8551h5.336l5.0977-16.7562 5.0977 16.7562h5.5742L13.1017.3867h-2.5251zM62.8902.3867H47.8828v23.4684h5.2883V5.7468h9.7191v-5.36zM77.7041 23.8551h5.5741L75.2743.3867h-5.1454L62.125 23.8068h5.336l1.3339-4.4426h7.5275l1.3817 4.4909zm-7.4799-8.8369l2.4298-7.9193 2.3821 7.9193h-4.8119z" fill="#000"/><path d="M99.7622 23.1591l-8.4575-5.6085V.8867h16.9613v16.6631l-8.5038 5.6093z" fill="#2C39F2" stroke="#2C39F2"/><path d="M104.956 13.7137c.191 0 .382 0 .572-.0966v1.9316c-.476.1448-1.096.2897-1.667.2897-1.048 0-1.858-.3863-2.287-1.1589-1.048.7726-2.2394 1.2555-3.8116 1.2072-1.9533 0-3.6684-1.1589-3.6208-3.1871.0476-2.6076 2.525-3.3802 4.6213-3.3802.8099 0 1.7631.1449 2.4771.2897v-.3863c0-1.014-.81-1.7384-2.4771-1.7384-1.4293 0-2.7156.338-3.7161.7244V5.6494c.8576-.2897 2.4774-.676 4.0496-.6277 3.1446.0483 5.1456 1.3038 5.0976 4.684l-.048 3.2837c.096.5794.429.7243.81.7243zm-8.1464-1.1589c0 .8209.7622 1.4003 1.8104 1.4003.9528 0 1.81-.2414 2.62-.8692v-1.7384c-.524-.1448-1.286-.2897-1.953-.2897-1.2864 0-2.4774.3863-2.4774 1.497z" fill="#fff"/><path d="M121.442 8.7886h-.524c-.62 0-1.144-.0966-1.62-.2898-.477-.1931-.905-.4828-1.239-.7726-.333-.2897-.572-.7243-.762-1.2072-.191-.4829-.238-.9658-.238-1.497 0-.5311.095-1.0623.285-1.497.191-.4345.429-.8691.763-1.2071.333-.338.762-.5795 1.238-.7727.477-.1931 1.049-.2897 1.62-.2897h.524V0h.81v1.2072h.524c.62 0 1.144.0966 1.62.2898.477.1931.905.4828 1.239.7726.333.2897.572.7243.762 1.2072.191.4829.286.9658.286 1.497 0 .5311-.095 1.0623-.286 1.497-.19.4345-.429.8691-.762 1.2071-.334.338-.715.5795-1.239.7726-.476.1932-1.048.2898-1.62.2898h-.524v1.2072h-.81v-1.159h-.047zm0-.676V1.835h-.524c-.477 0-.906.0966-1.287.2414-.381.1449-.667.338-.953.5795-.285.2414-.476.5312-.619.8692-.143.338-.19.676-.19 1.014v.821c0 .338.047.676.19 1.014.143.338.334.6278.619.8692.286.2415.572.4346.953.5795.381.1449.81.2414 1.287.2414h.524v.0483zm1.334 0c.476 0 .857-.0967 1.238-.2415.382-.1449.715-.338.953-.5795.238-.2414.477-.5312.62-.8692.143-.338.19-.676.19-1.014v-.821c0-.338-.047-.676-.19-1.014-.143-.338-.334-.6278-.62-.8692-.286-.2415-.571-.4346-.953-.5795-.381-.1449-.81-.2414-1.238-.2414h-.524v6.2775h.524v-.0483zM129.352 9.6093V.338h3.668c.81 0 1.429.2414 1.858.676.429.483.619 1.1107.619 1.8833 0 .821-.19 1.4487-.619 1.8833-.429.4829-1.048.676-1.858.676h-2.859v4.0563h-.809v.0965zm.809-4.7805h2.859c.524 0 .953-.145 1.239-.4346.286-.2898.429-.676.429-1.1107v-.676c0-.4346-.143-.821-.429-1.1107-.286-.2897-.667-.4346-1.239-.4346h-2.859v3.7666zM141.354 9.7546c-1.191 0-2.096-.3864-2.811-1.2073-.667-.8209-1-1.9798-1-3.5733 0-1.5936.333-2.7525 1-3.5734.667-.821 1.62-1.2072 2.811-1.2072 1.191 0 2.097.3863 2.764 1.2072.667.8209 1 1.9798 1 3.5734 0 1.5452-.333 2.7524-1 3.5733-.667.821-1.573 1.2073-2.764 1.2073zm0-.676c.429 0 .858-.0967 1.191-.2415.382-.1449.667-.3863.906-.676.238-.2898.476-.6761.619-1.1107.143-.4346.191-.9175.191-1.497v-1.159c0-.531-.048-1.0623-.191-1.4969-.143-.4346-.334-.8209-.619-1.1106-.239-.2897-.572-.5312-.906-.676-.333-.145-.762-.2415-1.191-.2415-.428 0-.857.0966-1.191.2414-.381.145-.667.3864-.953.676-.285.2898-.476.6761-.619 1.1107-.143.4346-.19.9175-.19 1.497v1.159c0 .5311.047 1.0623.19 1.4969.143.4346.334.8209.619 1.1106.239.2898.572.5312.953.676.334.145.763.2415 1.191.2415zM153.837 5.2634h-5.097v4.346h-.81V.3378h.81V4.539h5.097V.338h.81v9.2714h-.81v-4.346zM160.84 1.0622v8.5471h-.81v-8.547h-3.096V.3378h7.003v.7243h-3.097zM166.18 9.6093V.338h5.431v.7243h-4.621V4.539h4.383v.7244h-4.383V8.885h4.621v.7243h-5.431zM180.376 5.2634h-5.097v4.346h-.81V.3378h.81V4.539h5.097V.338h.81v9.2714h-.81v-4.346zM183.281 8.885h.953c.429-.5794.715-1.352.953-2.3178s.333-2.173.333-3.6217V.3379h5.241V8.885H192v2.7042h-.762V9.6093h-7.194v1.9799h-.763V8.885zm6.67 0V1.0622h-3.668v1.9799c0 1.4486-.096 2.6559-.286 3.6216-.191.9658-.477 1.6901-.81 2.2213v.0483h4.764V8.885zM124.156 23.8554l-1.001-2.8973h-3.954l-1 2.8973h-.81l3.287-9.2714h1l3.288 9.2714h-.81zm-3.002-8.4988h-.047l-1.715 4.9255h3.525l-1.763-4.9255zM127.492 23.1311h1.286l.524-1.3038-3.478-7.2433h.858l2.334 4.8772.62 1.352h.047l.524-1.4003 1.954-4.8289h.81l-3.383 8.4505c-.143.3381-.286.5312-.476.6761-.191.0966-.429.1448-.763.1448h-.857v-.7243zM138.258 15.3083v8.5471h-.81v-8.5471h-3.096v-.7243h7.003v.7243h-3.097zM146.547 24.0001c-1.144 0-2.049-.3863-2.668-1.2072-.62-.8209-.953-1.9799-.953-3.5734 0-1.5452.333-2.7525.953-3.5734.619-.8209 1.524-1.2555 2.668-1.2555.762 0 1.381.1932 1.905.5312.524.338.906.8209 1.191 1.4487l-.667.3863c-.19-.4829-.524-.9175-.905-1.2072-.429-.2898-.905-.4346-1.477-.4346-.857 0-1.524.2897-2.048.9174-.477.6278-.715 1.497-.715 2.6559v1.1107c0 1.1589.238 2.0281.715 2.6076.476.5794 1.143.9175 2.048.9175.62 0 1.144-.1449 1.572-.4829.429-.2898.715-.7244.953-1.2555l.667.3863c-.286.6277-.667 1.1589-1.191 1.4969-.667.3381-1.286.5312-2.048.5312zM155.409 23.9987c-1.191 0-2.096-.3863-2.811-1.2072-.667-.8209-1-1.9799-1-3.5734s.333-2.7525 1-3.5734 1.62-1.2072 2.811-1.2072c1.191 0 2.096.3863 2.763 1.2072.667.8209 1.001 1.9799 1.001 3.5734 0 1.5452-.334 2.7525-1.001 3.5734-.667.8209-1.572 1.2072-2.763 1.2072zm0-.676c.429 0 .858-.0966 1.191-.2415.381-.1449.667-.3863.905-.676.239-.2898.477-.6761.62-1.1107.143-.4346.19-.9175.19-1.4969v-1.159c0-.5311-.047-1.0623-.19-1.4969-.143-.4346-.334-.8209-.62-1.1107-.238-.2897-.571-.5311-.905-.676-.333-.1449-.762-.2415-1.191-.2415-.429 0-.858.0966-1.191.2415-.381.1449-.667.3863-.953.676-.286.2898-.476.6761-.619 1.1107-.143.4346-.191.9175-.191 1.4969v1.159c0 .5311.048 1.0623.191 1.4969.143.4346.333.8209.619 1.1107.238.2897.572.5311.953.676.333.1449.762.2415 1.191.2415zM162.031 23.8554V14.584h3.669c.81 0 1.429.2414 1.858.676.429.4829.619 1.1107.619 1.8833 0 .8209-.19 1.4487-.619 1.8833-.429.4828-1.048.676-1.858.676h-2.859v4.0563h-.81v.0965zm.81-4.7806h2.859c.524 0 .953-.1448 1.238-.4346.286-.2897.429-.676.429-1.1106v-.6278c0-.4345-.143-.8209-.429-1.1106-.285-.2897-.667-.4346-1.238-.4346h-2.859v3.7182zM173.847 24.0001c-1.143 0-2.048-.3863-2.668-1.2072-.619-.8209-.952-1.9799-.952-3.5734 0-1.5452.333-2.7525.952-3.5734.62-.8209 1.525-1.2555 2.668-1.2555.763 0 1.382.1932 1.906.5312.524.338.905.8209 1.191 1.4487l-.667.3863c-.19-.4829-.524-.9175-.905-1.2072-.429-.2898-.905-.4346-1.477-.4346-.858 0-1.525.2897-2.049.9174-.476.6278-.714 1.497-.714 2.6559v1.1107c0 1.1589.238 2.0281.714 2.6076.477.5794 1.144.9175 2.049.9175.619 0 1.143-.1449 1.572-.4829.429-.2898.715-.7244.953-1.2555l.667.3863c-.286.6277-.667 1.1589-1.191 1.4969-.667.3381-1.334.5312-2.049.5312z" fill="#000"/></svg>