<svg viewBox="0 0 347 99" fill="none" xmlns="http://www.w3.org/2000/svg"><path d="M155.228.6084l-28.784 49.6969-4.368 9.4565.993-8.4505-.198-50.7029h-22.035v97.7841h20.248l28.982-50.7028 3.971-8.8529-.795 7.8468.199 51.7089h22.035L175.277.6084h-20.049zM44.0691.6094H33.3496L0 98.3935h22.2331l21.2405-69.8171 21.2405 69.8171h23.2257L54.5902.6094H44.0691zM262.031.6084H199.5v97.7841h22.035V22.9418h40.496V.6084zM323.772 98.3925h23.226L313.648.6084h-21.439l-33.35 97.5829h22.233l5.559-18.5105h31.364l5.757 18.7117zm-31.166-36.8199l10.124-32.9971 9.926 32.9971h-20.05z" fill="#000"/></svg>